<?xml version="1.0" encoding="utf-8"?>
<!-- Generator: Adobe Illustrator 27.5.0, SVG Export Plug-In . SVG Version: 6.00 Build 0)  -->
<svg version="1.1" xmlns="http://www.w3.org/2000/svg" xmlns:xlink="http://www.w3.org/1999/xlink" x="0px" y="0px"
	 viewBox="0 0 500 500" style="enable-background:new 0 0 500 500;" xml:space="preserve">
<g id="Background_Simple">
	<g>
		<g>
			<g style="opacity:0.7;">
				<path style="fill:#92E3A9;" d="M59.191,144.338c-8.934,24.013-12.587,48.182-13.336,71.165
					c-0.112,3.243-0.156,6.472-0.132,9.671c0.074,10.306,0.796,20.372,2.059,30.153c1.614,12.532,4.121,24.586,7.309,36.014
					c5.114,18.384,11.96,35.15,19.608,49.695c6.035,11.487,12.521,21.634,19.162,30.03c74.428,94.089,123.916,83.923,143.89,82.484
					c30.735-2.214,134.482-95.991,156.939-117.441c22.456-21.45,46.52-41.682,63.13-68.456
					c16.617-26.766,49.211-115.509-86.4-200.078c-8.804-5.084-17.614-9.512-26.408-13.336
					C186.554-22.896,88.522,65.503,59.191,144.338z"/>
			</g>
		</g>
		<g style="opacity:0.7;">
			<path style="fill:#FFFFFF;" d="M58.937,144.121c-8.934,24.013-12.587,48.182-13.335,71.165c-0.112,3.243-0.156,6.472-0.132,9.671
				c0.074,10.307,0.796,20.372,2.059,30.153c1.614,12.532,4.121,24.586,7.309,36.014c5.114,18.384,11.96,35.15,19.608,49.695
				c6.035,11.487,12.521,21.634,19.162,30.03c74.428,94.089,123.916,83.923,143.89,82.484
				c30.735-2.214,134.483-95.991,156.939-117.441c22.457-21.45,46.521-41.681,63.13-68.456
				c16.617-26.766,49.211-115.509-86.4-200.078c-8.804-5.084-17.614-9.512-26.408-13.336C186.3-23.113,88.268,65.285,58.937,144.121
				z"/>
		</g>
	</g>
</g>
<g id="Plants">
	<g>
		<g>
			<path style="fill:#92E3A9;" d="M108.225,435.45c0.294,1.974,2.947,2.455,3.921,0.706c4.473-8.036,15.573-23.057,39.925-34.077
				c22.962-10.391,3.678-36.289-14.185-27.67C118.633,383.698,104.319,409.221,108.225,435.45z"/>
			<path style="opacity:0.2;fill:#263238;" d="M111.154,432.733c0,0,1.344-4.558,5.528-9.453
				c6.044-7.072,14.735-14.848,6.369-10.605c0,0,8.709-6.686,18.258-10.648c9.549-3.962-8.682-3.541-8.682-3.541
				s21.296-12.821,17.98-16.765c-2.72-3.235-15.531,6.934-15.531,6.934s2.31-8.915,0-9.163c-2.31-0.247-10.1,17.829-10.1,17.829
				s0.926-5.677-1.924-5.068C120.201,392.864,107.888,419.856,111.154,432.733z"/>
			<g>
				<g>
					<path style="fill:#92E3A9;" d="M95.049,434.831c-0.076,1.764-2.366,2.425-3.385,0.974c-4.68-6.668-15.838-18.887-38.286-26.393
						c-21.167-7.078-6.597-31.6,9.919-25.622C81.097,390.231,96.056,411.401,95.049,434.831z"/>
				</g>
				<path style="opacity:0.2;" d="M91.874,431.139c0,0-1.632-3.738-5.717-7.468c-5.901-5.388-14.13-11.099-6.556-8.36
					c0,0-8.127-4.781-16.677-7.158c-8.55-2.376,7.008-3.917,7.008-3.917s-19.495-8.69-17.097-12.392
					c1.967-3.035,13.958,4.282,13.958,4.282s-2.922-7.345-0.983-7.796c1.939-0.451,10.506,14.118,10.506,14.118
					s-1.397-4.734,1.094-4.512C79.9,398.159,93.272,419.842,91.874,431.139z"/>
				<g>
					
						<path style="fill:none;stroke:#263238;stroke-width:0.75;stroke-linecap:round;stroke-linejoin:round;stroke-miterlimit:10;" d="
						M64.158,398.486c0,0,24.057,12.043,32.827,48.14"/>
				</g>
				<g>
					<g>
						<path style="fill:#92E3A9;" d="M103.827,436.21c-1.163,2.184-4.457,1.675-4.866-0.758
							c-1.88-11.177-8.588-33.173-32.414-55.848c-22.467-21.381,10.781-43.809,28.036-26.551
							C113.178,371.651,119.274,407.193,103.827,436.21z"/>
						<path style="opacity:0.2;fill:#263238;" d="M101.389,431.742c0,0,0.1-5.96-3.08-13.36
							c-4.594-10.691-12.102-23.194-3.657-15.049c0,0-7.938-11.201-17.907-19.439c-9.969-8.239,11.749-1.08,11.749-1.08
							s-20.736-23.155-15.275-26.678c4.479-2.889,16.03,13.987,16.03,13.987s0.578-11.54,3.443-10.994
							c2.865,0.546,5.42,25.079,5.42,25.079s1.022-7.15,4.213-5.378C105.516,380.602,110.148,417.483,101.389,431.742z"/>
					</g>
					
						<path style="fill:none;stroke:#263238;stroke-width:0.75;stroke-linecap:round;stroke-linejoin:round;stroke-miterlimit:10;" d="
						M86.778,372.13c0,0,23.115,29.353,12.358,80.123"/>
				</g>
				<g>
					
						<path style="fill:none;stroke:#263238;stroke-width:0.75;stroke-linecap:round;stroke-linejoin:round;stroke-miterlimit:10;" d="
						M138.657,391.032c0,0-25.624,16.306-31.212,57.903"/>
				</g>
				<path style="fill:#FFFFFF;stroke:#263238;stroke-miterlimit:10;" d="M117.861,466.016H85.877c-3.568,0-6.568-2.638-6.972-6.132
					l-1.695-14.651c-0.158-1.365,0.926-2.562,2.32-2.562h44.676c1.395,0,2.478,1.197,2.32,2.562l-1.695,14.651
					C124.429,463.378,121.429,466.016,117.861,466.016z"/>
			</g>
			<g>
				
					<line style="fill:#FFFFFF;stroke:#263238;stroke-linecap:round;stroke-linejoin:round;" x1="85.136" y1="449.597" x2="80.32" y2="449.597"/>
				
					<line style="fill:#FFFFFF;stroke:#263238;stroke-linecap:round;stroke-linejoin:round;" x1="123.661" y1="449.597" x2="90.389" y2="449.597"/>
			</g>
		</g>
		<g>
			<g>
				<g>
					<g>
						<path style="fill:#92E3A9;" d="M401.348,413.56c0.093,0.157-0.748,0.95,2.02,1.072c6.817,0.301,18.874-0.124,23.419-6.31
							c6.49-8.832-8.42-8.063-6.957-12.939c1.464-4.876,17.468-0.844,20.615-7.802c3.147-6.958-8.506-5.633-7.955-9.216
							c0.551-3.583,12.758,1.098,16.808-6.281s-6.638-3.456-4.899-6.513c1.739-3.056,15.329-15.764,9.847-18.622
							c-5.482-2.857-18.257,10.412-22.461,11.824c-4.204,1.411-5.137-11.643-10.671-7.292c-5.533,4.352-1.968,24.064-8.414,26.492
							c-4.801,1.808-2.164-5.246-8.083-4.992C396.577,373.327,393.852,400.945,401.348,413.56z"/>
						<g style="opacity:0.1;">
							<path d="M401.348,413.56c0.093,0.157-0.748,0.95,2.02,1.072c6.817,0.301,18.874-0.124,23.419-6.31
								c6.49-8.832-8.42-8.063-6.957-12.939c1.464-4.876,17.468-0.844,20.615-7.802c3.147-6.958-8.506-5.633-7.955-9.216
								c0.551-3.583,12.758,1.098,16.808-6.281s-6.638-3.456-4.899-6.513c1.739-3.056,15.329-15.764,9.847-18.622
								c-5.482-2.857-18.257,10.412-22.461,11.824c-4.204,1.411-5.137-11.643-10.671-7.292c-5.533,4.352-1.968,24.064-8.414,26.492
								c-4.801,1.808-2.164-5.246-8.083-4.992C396.577,373.327,393.852,400.945,401.348,413.56z"/>
						</g>
					</g>
					<g>
						<g>
							<g>
								<g>
									<g>
										
											<path style="fill:none;stroke:#263238;stroke-width:0.75;stroke-linecap:round;stroke-linejoin:round;stroke-miterlimit:10;" d="
											M428.428,373.042c0,0-26.469,18.076-32.241,64.187"/>
										
											<path style="fill:none;stroke:#263238;stroke-width:0.75;stroke-linecap:round;stroke-linejoin:round;stroke-miterlimit:10;" d="
											M432.474,378.69c-6.391-1.375-10.3-0.113-10.3-0.113"/>
										
											<path style="fill:none;stroke:#263238;stroke-width:0.75;stroke-linecap:round;stroke-linejoin:round;stroke-miterlimit:10;" d="
											M425.228,359.641c0,0-8.041,10.625-7.945,24.485"/>
										
											<path style="fill:none;stroke:#263238;stroke-width:0.75;stroke-linecap:round;stroke-linejoin:round;stroke-miterlimit:10;" d="
											M409.392,395.826c0,0,5.723-5.373,13.321-2.625"/>
										
											<path style="fill:none;stroke:#263238;stroke-width:0.75;stroke-linecap:round;stroke-linejoin:round;stroke-miterlimit:10;" d="
											M405.261,403.991c0,0-2.979-7.032-1.35-16.935"/>
									</g>
								</g>
							</g>
						</g>
					</g>
				</g>
				<g>
					<g>
						<path style="fill:#92E3A9;" d="M393.269,420.651c-5.608,0.107-15.186-5.101-18.947-10.168
							c-3.816-5.141,6.918-1.952,5.816-5.989c-1.102-4.037-14.336-1.053-16.778-6.836c-2.442-5.783,7.106-4.453,6.727-7.409
							c-0.379-2.956-10.271-2.355-13.446-8.501c-3.176-6.147,5.526-2.703,4.16-5.251c-1.366-2.547-12.272-13.27-7.708-15.505
							c4.564-2.235,14.788,8.932,18.213,10.179c3.425,1.247,4.226-6.467,8.683-2.778c4.457,3.69,1.121,19.814,6.368,21.942
							c3.908,1.585,2.246-5.798,6.745-3.935C400.977,389.663,395.546,420.608,393.269,420.651z"/>
						<g style="opacity:0.3;">
							<path style="fill:#FFFFFF;" d="M393.269,420.651c-5.608,0.107-15.186-5.101-18.947-10.168
								c-3.816-5.141,6.918-1.952,5.816-5.989c-1.102-4.037-14.336-1.053-16.778-6.836c-2.442-5.783,7.106-4.453,6.727-7.409
								c-0.379-2.956-10.271-2.355-13.446-8.501c-3.176-6.147,5.526-2.703,4.16-5.251c-1.366-2.547-12.272-13.27-7.708-15.505
								c4.564-2.235,14.788,8.932,18.213,10.179c3.425,1.247,4.226-6.467,8.683-2.778c4.457,3.69,1.121,19.814,6.368,21.942
								c3.908,1.585,2.246-5.798,6.745-3.935C400.977,389.663,395.546,420.608,393.269,420.651z"/>
						</g>
					</g>
					<g>
						
							<path style="fill:none;stroke:#263238;stroke-width:0.75;stroke-linecap:round;stroke-linejoin:round;stroke-miterlimit:10;" d="
							M366.204,373.031c0,0,27.97,27.429,29.574,68.426"/>
						
							<path style="fill:none;stroke:#263238;stroke-width:0.75;stroke-linecap:round;stroke-linejoin:round;stroke-miterlimit:10;" d="
							M365.52,385.734c6.345-0.124,11.339,2.193,11.729,2.339c0.018,0.014,0.028,0.016,0.028,0.016"/>
						
							<path style="fill:none;stroke:#263238;stroke-width:0.75;stroke-linecap:round;stroke-linejoin:round;stroke-miterlimit:10;" d="
							M376.015,371.205c0,0,6.294,9.887,5.16,22.089"/>
						
							<path style="fill:none;stroke:#263238;stroke-width:0.75;stroke-linecap:round;stroke-linejoin:round;stroke-miterlimit:10;" d="
							M385.193,400.203c0,0-4.609-4.703-11.533-2.878"/>
						
							<path style="fill:none;stroke:#263238;stroke-width:0.75;stroke-linecap:round;stroke-linejoin:round;stroke-miterlimit:10;" d="
							M390.283,411.582c0,0,3.162-5.998,2.473-14.829"/>
					</g>
				</g>
			</g>
			<path style="fill:#FFFFFF;stroke:#263238;stroke-miterlimit:10;" d="M369.039,440.784c0,14.226,12.348,25.741,27.581,25.741
				c15.233,0,27.581-11.514,27.581-25.741c0-8.012-8.777-15.18-16.427-19.909h-22.308
				C377.817,425.604,369.039,432.772,369.039,440.784z"/>
			
				<line style="fill:#FFFFFF;stroke:#263238;stroke-linecap:round;stroke-linejoin:round;" x1="380.018" y1="441.853" x2="375.203" y2="441.853"/>
			
				<line style="fill:#FFFFFF;stroke:#263238;stroke-linecap:round;stroke-linejoin:round;" x1="418.544" y1="441.853" x2="385.272" y2="441.853"/>
		</g>
	</g>
</g>
<g id="Graphics">
	<g>
		<g>
			<g>
				<g>
					<g>
						
							<line style="fill:none;stroke:#263238;stroke-linecap:round;stroke-linejoin:round;stroke-miterlimit:10;" x1="358.481" y1="82.373" x2="358.481" y2="71.827"/>
						<polyline style="fill:none;stroke:#263238;stroke-linecap:round;stroke-linejoin:round;stroke-miterlimit:10;" points="
							362.374,79.198 358.503,83.068 354.633,79.198 						"/>
					</g>
					
						<line style="fill:none;stroke:#263238;stroke-linecap:round;stroke-linejoin:round;stroke-miterlimit:10;" x1="363.299" y1="69.445" x2="353.753" y2="69.445"/>
				</g>
			</g>
			<path style="fill:none;stroke:#263238;stroke-linecap:round;stroke-linejoin:round;stroke-miterlimit:10;" d="M355.413,62.898
				c0.948-0.213,1.933-0.326,2.945-0.326c7.373,0,13.349,5.977,13.349,13.349c0,7.373-5.977,13.349-13.349,13.349
				c-7.373,0-13.35-5.977-13.35-13.349c0-3.143,1.086-6.033,2.904-8.314"/>
			<path style="fill:none;stroke:#263238;stroke-linecap:round;stroke-linejoin:round;stroke-miterlimit:10;" d="M350.952,64.814
				c0.557-0.372,1.143-0.703,1.755-0.99"/>
		</g>
		<g>
			<polyline style="fill:none;stroke:#263238;stroke-linecap:round;stroke-linejoin:round;stroke-miterlimit:10;" points="
				135.701,69.846 156.306,69.846 156.306,80.389 124.866,80.389 124.866,69.846 127.304,69.846 			"/>
			
				<line style="fill:none;stroke:#263238;stroke-linecap:round;stroke-linejoin:round;stroke-miterlimit:10;" x1="130.208" y1="69.846" x2="133.144" y2="69.846"/>
			<polygon style="fill:none;stroke:#263238;stroke-linecap:round;stroke-linejoin:round;stroke-miterlimit:10;" points="
				146.649,89.746 140.588,95.807 134.523,89.746 137.363,89.746 137.363,83.637 143.809,83.637 143.809,89.746 			"/>
		</g>
		<g>
			<g>
				<polyline style="fill:none;stroke:#263238;stroke-linecap:round;stroke-linejoin:round;stroke-miterlimit:10;" points="
					303.321,378.566 324.632,378.566 309.331,396.105 294.03,378.566 298.523,378.566 				"/>
			</g>
			<g>
				<polyline style="fill:none;stroke:#263238;stroke-linecap:round;stroke-linejoin:round;stroke-miterlimit:10;" points="
					309.331,364.762 319.141,364.762 309.331,376.007 299.521,364.762 304.331,364.762 				"/>
			</g>
		</g>
	</g>
</g>
<g id="Interface">
	<g>
		<g>
			
				<rect x="42.104" y="105.204" style="fill:#BFBFBF;stroke:#263238;stroke-linecap:round;stroke-linejoin:round;" width="414.168" height="233.796"/>
		</g>
		<g>
			<g>
				<defs>
					<rect id="XMLID_8_" x="46.444" y="109.771" width="405.487" height="224.77"/>
				</defs>
				<use xlink:href="#XMLID_8_"  style="overflow:visible;fill:#92E3A9;"/>
				<clipPath id="XMLID_00000088112173274295094970000004861666171658215301_">
					<use xlink:href="#XMLID_8_"  style="overflow:visible;"/>
				</clipPath>
				
					<rect x="46.444" y="109.771" style="opacity:0.9;clip-path:url(#XMLID_00000088112173274295094970000004861666171658215301_);fill:#FFFFFF;stroke:#263238;stroke-miterlimit:10;" width="405.487" height="224.77"/>
				<use xlink:href="#XMLID_8_"  style="overflow:visible;fill:none;stroke:#263238;stroke-miterlimit:10;"/>
			</g>
			
				<rect x="46.444" y="109.616" style="fill:#92E3A9;stroke:#263238;stroke-linecap:round;stroke-linejoin:round;" width="405.487" height="23.078"/>
			<rect x="319.172" y="114.123" style="opacity:0.2;" width="49.593" height="14.063"/>
			
				<rect x="327.51" y="116.984" style="fill:#FFFFFF;stroke:#263238;stroke-linecap:round;stroke-linejoin:round;" width="30.882" height="8.735"/>
			
				<rect x="73.574" y="116.984" style="fill:#FFFFFF;stroke:#263238;stroke-linecap:round;stroke-linejoin:round;" width="61.934" height="8.735"/>
			
				<rect x="280.008" y="116.984" style="fill:#FFFFFF;stroke:#263238;stroke-linecap:round;stroke-linejoin:round;" width="30.882" height="8.735"/>
			
				<rect x="375.011" y="116.984" style="fill:#FFFFFF;stroke:#263238;stroke-linecap:round;stroke-linejoin:round;" width="30.882" height="8.735"/>
			
				<ellipse style="fill:#92E3A9;stroke:#263238;stroke-linecap:round;stroke-linejoin:round;" cx="105.309" cy="178.963" rx="29.93" ry="29.495"/>
			
				<line style="fill:#FFFFFF;stroke:#263238;stroke-width:2;stroke-linecap:round;stroke-linejoin:round;" x1="76.297" y1="219.763" x2="134.948" y2="219.763"/>
			
				<rect x="88.085" y="234.353" style="fill:#263238;stroke:#263238;stroke-linecap:round;stroke-linejoin:round;" width="14.905" height="8.283"/>
			
				<rect x="88.085" y="250.411" style="fill:#263238;stroke:#263238;stroke-linecap:round;stroke-linejoin:round;" width="29.811" height="8.283"/>
			
				<rect x="88.085" y="266.469" style="fill:#263238;stroke:#263238;stroke-linecap:round;stroke-linejoin:round;" width="22.483" height="8.283"/>
			
				<rect x="88.085" y="282.526" style="fill:#263238;stroke:#263238;stroke-linecap:round;stroke-linejoin:round;" width="33.075" height="8.283"/>
		</g>
		
			<rect x="150.623" y="145.989" style="fill:#FFFFFF;stroke:#263238;stroke-linecap:round;stroke-linejoin:round;" width="285.861" height="174.764"/>
	</g>
</g>
<g id="Drop_Down">
	<g>
		<g>
			<g>
				
					<rect x="369.422" y="190.991" style="fill:#BFBFBF;stroke:#263238;stroke-linecap:round;stroke-linejoin:round;" width="51.63" height="88.256"/>
				<g>
					
						<line style="fill:#FFFFFF;stroke:#263238;stroke-width:2;stroke-linecap:round;stroke-linejoin:round;" x1="379.585" y1="203.37" x2="410.889" y2="203.37"/>
					
						<line style="fill:#FFFFFF;stroke:#263238;stroke-width:2;stroke-linecap:round;stroke-linejoin:round;" x1="379.585" y1="232.155" x2="410.889" y2="232.155"/>
					
						<line style="fill:#FFFFFF;stroke:#263238;stroke-width:2;stroke-linecap:round;stroke-linejoin:round;" x1="379.585" y1="260.941" x2="410.889" y2="260.941"/>
				</g>
			</g>
			<g>
				
					<rect x="317.792" y="132.341" style="fill:#BFBFBF;stroke:#263238;stroke-linecap:round;stroke-linejoin:round;" width="51.63" height="88.256"/>
				<rect x="323.256" y="195.602" style="opacity:0.2;fill:#FFFFFF;" width="41.231" height="14.063"/>
				<g>
					
						<line style="fill:#FFFFFF;stroke:#263238;stroke-width:2;stroke-linecap:round;stroke-linejoin:round;" x1="328.235" y1="144.989" x2="359.539" y2="144.989"/>
					
						<line style="fill:#FFFFFF;stroke:#263238;stroke-width:2;stroke-linecap:round;stroke-linejoin:round;" x1="328.235" y1="173.774" x2="359.539" y2="173.774"/>
					
						<line style="fill:none;stroke:#92E3A9;stroke-width:2;stroke-linecap:round;stroke-linejoin:round;" x1="328.235" y1="202.56" x2="359.539" y2="202.56"/>
				</g>
			</g>
		</g>
		<polygon style="fill:#FFFFFF;stroke:#263238;stroke-linecap:round;stroke-linejoin:round;" points="366.302,210.61 
			362.721,212.818 365.238,216.804 361.968,218.821 359.451,214.835 356.066,216.922 354.779,203.679 		"/>
	</g>
</g>
<g id="Character">
	<g>
		<g>
			<g>
				<g>
					<g>
						<defs>
							<path id="XMLID_1_" d="M248.556,225.238l3.564-13.401c-10.931-7.537-22.077-18.039-32.212-26.954
								c-4.528-3.983-8.465-8.788-12.38-13.57c-5.631-6.878-11.261-13.757-16.892-20.635c-3.031-3.703-10.41-16.781-17.954-10.694
								c-5.457,3.747-5.517,16.976-2.488,25.029c3.178,8.449,6.895,13.626,13.455,18.814c6.56,5.188,23.413,22.877,26.218,25.101
								C221.615,218.246,234.516,222.601,248.556,225.238z"/>
						</defs>
						<use xlink:href="#XMLID_1_"  style="overflow:visible;fill:#263238;"/>
						<clipPath id="XMLID_00000115500975328304670080000014888995839964566912_">
							<use xlink:href="#XMLID_1_"  style="overflow:visible;"/>
						</clipPath>
						
							<use xlink:href="#XMLID_1_"  style="overflow:visible;fill:none;stroke:#263238;stroke-width:0.9208;stroke-linecap:round;stroke-linejoin:round;stroke-miterlimit:10;"/>
					</g>
					<g>
						<g>
							<path style="fill:#263238;stroke:#263238;stroke-linecap:round;stroke-linejoin:round;stroke-miterlimit:10;" d="
								M271.718,154.261c0,0-0.305,1.641-0.291,1.526c0.015-0.115,1.497-1.015,2.248-0.625c0.751,0.39,1.331,0.967,1.331,0.967
								l1.604-2.123l-3.223-0.7L271.718,154.261z"/>
							<g>
								<g>
									<path style="fill:#757575;stroke:#263238;stroke-linecap:round;stroke-linejoin:round;stroke-miterlimit:10;" d="
										M273.388,153.306l-1.67,0.955c-0.179,0.798-0.395,1.791-0.354,2.605c0.046,0.921,1.587,1.576,2.424,1.946
										c1.356-0.569,3.413-2.028,4.769-2.597c2.008-2.384,3.481,0.738,1.643,3.809c0,0-4.929,3.612-8.418,5.651
										c-2.389,0.338-4.76,0.824-7.093,1.453c-1.269-2.22-4.901-7.146-4.901-7.146c1.619-1.143,5.908-9.446,8.16-12.104
										c0,0,4.898-0.283,6.955-0.422c2.057-0.139,2.645,1.593,4.498,3.862L273.388,153.306z"/>
								</g>
								<path style="fill:#757575;stroke:#263238;stroke-linecap:round;stroke-linejoin:round;stroke-miterlimit:10;" d="
									M268.332,147.855l9.789-1.197c4.715,0.174,8.896,0.559,11.752,2.04c0.486,0.252,1.096,0.34,1.39,0.801
									c0.49,0.769-0.1,1.292-0.956,1.631c-0.856,0.339-2.037,0.372-2.928,0.178c-1.799-0.391-7.978,0.01-7.978,0.01
									c-3.5,0.464-7.683,2.943-7.683,2.943"/>
								<g>
									<path style="fill:#757575;stroke:#263238;stroke-linecap:round;stroke-linejoin:round;stroke-miterlimit:10;" d="
										M279.263,154.614c-0.047,0.404-0.315,1.194-0.665,1.402c-1.279,0.762-2.898,1.755-4.249,2.376
										c-0.884-0.245-2.237-1.341-2.237-1.341s-0.562-0.471-0.745-0.628c0.117-0.569,1.065-1.197,1.633-1.314
										c1.012-0.208,2.008,1.019,2.008,1.019c-0.663-0.763-0.4-0.46-0.4-0.46c-0.195-0.097-0.33-0.249-0.525-0.346
										c-0.047-0.023,0.207-0.585,0.454-0.747c0.713,0.259,1.724-0.212,1.724-0.212c-0.819,0.631-2.133-0.474-2.872-1.057
										L279.263,154.614z"/>
								</g>
							</g>
						</g>
						<g>
							<defs>
								<path id="XMLID_2_" d="M266.934,168.72l-7.542-11.847c-14.07,5.004-30.571,8.292-45.089,11.691
									c-6.487,1.519,6.93,25.645,10.763,24.548C241.118,188.516,254.25,179.685,266.934,168.72z"/>
							</defs>
							<use xlink:href="#XMLID_2_"  style="overflow:visible;fill:#263238;"/>
							<clipPath id="XMLID_00000041266845428907700720000003482746781130288274_">
								<use xlink:href="#XMLID_2_"  style="overflow:visible;"/>
							</clipPath>
							
								<path style="opacity:0.4;clip-path:url(#XMLID_00000041266845428907700720000003482746781130288274_);stroke:#263238;stroke-linecap:round;stroke-linejoin:round;stroke-miterlimit:10;" d="
								M214.304,168.564c-2.718,0.636-5.469,1.079-8.235,1.42l15.681,23.83c1.557-0.291,2.715-0.53,3.316-0.702
								c16.051-4.595,29.184-13.426,41.868-24.392l-7.542-11.847C245.323,161.877,228.822,165.165,214.304,168.564z"/>
							
								<use xlink:href="#XMLID_2_"  style="overflow:visible;fill:none;stroke:#263238;stroke-linecap:round;stroke-linejoin:round;stroke-miterlimit:10;"/>
						</g>
					</g>
				</g>
				<g>
					<g>
						<path style="fill:#263238;stroke:#263238;stroke-linecap:round;stroke-linejoin:round;stroke-miterlimit:10;" d="
							M164.068,466.13l11.127,0.308l0.617,0.021h10.171c3.741,0,3.273-2.721,3.698-6.419c0.521-4.506-1.913-9.182-1.913-9.182
							h-17.121c-0.67,1.105-1.18,2.147-1.541,3.146C159.9,460.573,164.068,466.13,164.068,466.13z"/>
						<path style="fill:#263238;stroke:#263238;stroke-linecap:round;stroke-linejoin:round;stroke-miterlimit:10;" d="
							M247.63,466.13l-10.5,0.298h-0.021l-1.222,0.032l-9.419,0.002c-4.432,0-4.63-3.562-4.535-7.973
							c0.074-3.964,2.083-7.631,2.083-7.631h17.918c0.786,1.233,1.36,2.412,1.754,3.507
							C252.833,463.098,247.63,466.13,247.63,466.13z"/>
						<path style="fill:#263238;stroke:#263238;stroke-linecap:round;stroke-linejoin:round;stroke-miterlimit:10;" d="
							M237.108,466.428c-0.244,0.021-0.489,0.032-0.733,0.032h-0.489L237.108,466.428z"/>
						<g>
							<defs>
								<path id="XMLID_7_" d="M259.803,277.609c0,0-5.226,93.039-8.24,109.266c-0.926,4.986-5.34,39.764-5.977,47.135
									c0,0,1.362,6.592,0.097,12.018l-1.254,2.874c-2.13,4.453-20.878,4.655-21.506,3.447c-0.617-1.198-3.068-1.492-0.225-18.401
									c0.315-1.872,0.818-21.782,1.613-48.443c0.261-8.755,1.48-15.613,0.492-37.655c-0.041-0.962-4.928-58.118-5.021-59.101
									l-1.014,0.396c-0.113,1.111-0.221,2.189-0.322,3.206c-0.49,4.918-1.378,9.786-2.658,14.561l-17.968,67.034l0.039,12.175
									c0.28,14.834-1.035,32.454-5.098,46.73l0.397,3.718c0.75,7.022,2.367,15.086-5.476,16.43l-16.015,0.775
									c-2.667,0-5.687-0.268-5.51-2.916l1.48-10.833c3.277-12.493,2.142-52.435,2.706-65.335l6.691-96.172l3.898-28.496
									l76.222-1.556L259.803,277.609z"/>
							</defs>
							<use xlink:href="#XMLID_7_"  style="overflow:visible;fill:#92E3A9;"/>
							<clipPath id="XMLID_00000155828863023732471090000017956091920406945454_">
								<use xlink:href="#XMLID_7_"  style="overflow:visible;"/>
							</clipPath>
							<g style="clip-path:url(#XMLID_00000155828863023732471090000017956091920406945454_);">
								<path style="opacity:0.2;" d="M218.578,264.423c-12.368,0.992-25.288-1.26-39.628-5.998
									c-0.21-0.069-0.368-0.249-0.553-0.376c0,0,29.354,1.852,79.586-5.482c0,0-5.839,1.409-17.735,6.479
									C233.098,262.094,225.936,263.833,218.578,264.423"/>
							</g>
							<g style="clip-path:url(#XMLID_00000155828863023732471090000017956091920406945454_);">
								<g>
									<path style="opacity:0.2;" d="M191.724,289.188c3.376,5.917,12.796,5.915,16.271,11.775
										c3.309,5.58,5.005,15.503,2.584,25.375l3.062-11.423c3.512-5.992,2.693-10.075,4.038-16.771
										c0.205-1.02,0.751-7.669,1.088-9c0,0-8.986,2.328-9.748,2.357C201.568,291.785,198.558,290.895,191.724,289.188z"/>
								</g>
								<path style="opacity:0.2;" d="M226.126,345.875c0.266,3.233,0.754,6.583,2.569,9.271s5.313,4.498,8.369,3.411
									c1.476-0.525,2.718-1.656,4.325-1.774c0.962-0.071,1.95,0.348,2.343,1.229c0.364,0.817-0.032,1.512-0.48,2.102
									c-1.215,1.597-2.946,2.802-3.886,4.576c-0.94,1.773-0.572,4.524,1.361,5.063c-1.933-0.067-4.594,0.556-4.472,2.486
									c0.139,2.198,4.046,2.959,3.657,5.126c-3.951,4.934-6.531,10.956-7.377,17.22c-1.827,13.527,4.518,26.526,2.332,39.637
									c-0.354,2.121,0.828,4.31,2.896,4.902c0.14,0.04,0.282,0.071,0.427,0.09c-3.665,1.215-7.525,1.839-11.386,1.842
									c-1.687,1.938,8.36,11.729,8.341,10.565c-0.002-0.141-4.557,2.173-4.697,2.15c-5.683-0.928-7.734,1.58-12.083-4.05
									c-0.941-1.219-1.557-2.66-1.821-4.177c-8.94-51.233,5.724-113.201,3.748-156.028c0.074,0.399,11.949,4.635,20.62,0.696
									c2.388-1.085-6.766,8.188-9.956,18.416C227.202,320.666,225.093,333.303,226.126,345.875z"/>
								<path style="opacity:0.2;" d="M194.862,360.377c-0.878,1.269-1.879,2.563-3.313,3.133
									c-2.547,1.013-12.571-11.498-15.162-12.392c3.211,9.956,9.253,14.056,12.364,19.261c0.448,0.75,0.902,1.594,0.739,2.453
									c-0.574,3.011-10.886,0.307-11.803,3.232c2.263,2.098,10.252,3.355,12.848,1.688c2.373,21.662-2.897,45.393-15.401,63.24
									c3.058,1.335,6.379-0.546,8.872-2.765c0.078,4.983-3.698,12.632-7.566,15.545c4.62,1.009,13.302-0.615,16.323-4.254
									c4.018-4.84,0.905-12.065,1.286-18.343c0.193-3.186,1.339-6.223,2.294-9.269c3.606-11.501,4.578-23.818,2.821-35.742
									c-0.6-4.068-1.515-8.145-1.218-12.247c0.304-4.208,1.866-8.206,3.307-12.171c1.161-3.197,10.5-26.407,6.901-26.358
									C208.153,335.388,197.191,357.014,194.862,360.377z"/>
							</g>
							
								<use xlink:href="#XMLID_7_"  style="overflow:visible;fill:none;stroke:#263238;stroke-linecap:round;stroke-linejoin:round;"/>
						</g>
						<g>
							<g>
								<g>
									<g>
										<g>
											<g>
												<g>
													<defs>
														<path id="XMLID_6_" d="M208.141,129.784l7.045-17.502l-2.378-15.424l2.387-16.838l14.613-5.511l12.085-0.1
															l4.294,3.668l1.168,5.111c0,0,3.825,13.494,2.495,15.737c-1.331,2.243-2.411,4.402-2.411,4.402
															s2.903,6.633,3.016,9.297c0.134,3.177-3.639,0.227-4.878,3.841c-1.246,3.634-2.235,12.016-6.738,11.729
															c-4.503-0.287-6.912-0.589-7.99,3.22c-1.078,3.809-3.816,14.197-3.816,14.197L208.141,129.784z"/>
													</defs>
													<use xlink:href="#XMLID_6_"  style="overflow:visible;fill:#757575;"/>
													<clipPath id="XMLID_00000132770508331056283530000015959851031200515724_">
														<use xlink:href="#XMLID_6_"  style="overflow:visible;"/>
													</clipPath>
													<path style="opacity:0.3;clip-path:url(#XMLID_00000132770508331056283530000015959851031200515724_);" d="
														M226.481,90.445c-0.245,3.859,1.322,6.984-1.149,13.971c0,0-1.831-4.531-4.174-4.578
														c-1.963-0.039-3.196,1.208-3.152,3.142c0.044,1.934,0.814,4.328,2.53,5.269c0,0-1.934,4.562-2.366,6.299
														c-1.141,0-2.984-2.266-2.984-2.266l-2.225-14.432C217.448,94.726,221.396,92.495,226.481,90.445z"/>
													
														<use xlink:href="#XMLID_6_"  style="overflow:visible;fill:none;stroke:#263238;stroke-linecap:round;stroke-linejoin:round;stroke-miterlimit:10;"/>
												</g>
												<path style="fill:#263238;" d="M243.819,102.089c-0.131,0.922-0.692,1.607-1.253,1.53
													c-0.562-0.077-0.911-0.887-0.78-1.81c0.131-0.922,0.692-1.607,1.253-1.53C243.6,100.356,243.95,101.167,243.819,102.089
													z"/>
												<path style="fill:none;stroke:#263238;stroke-linecap:round;stroke-linejoin:round;stroke-miterlimit:10;" d="
													M239.582,97.85c0,0,3.073-4.296,7.038-0.904"/>
												<path style="fill:none;stroke:#263238;stroke-linecap:round;stroke-linejoin:round;stroke-miterlimit:10;" d="
													M241.095,117.109c0,0-3.289-0.094-5.117-3.502"/>
											</g>
											<path style="fill:#263238;stroke:#263238;stroke-linecap:round;stroke-linejoin:round;stroke-miterlimit:10;" d="
												M237.543,128.015c0,0-9.565-4.787-12.047-7.969l5.351,11.367C230.847,131.413,231.501,126.095,237.543,128.015z"/>
										</g>
										<path style="fill:#FFFFFF;stroke:#263238;stroke-linecap:round;stroke-linejoin:round;" d="M203.372,131.547
											c0,0,5.387-0.184,13.93,0.184c6.539,0.389,13.052,1.113,19.515,2.167c0,0-2.221-6.966-8.367-7.508
											c-6.146-0.542-20.438-0.542-20.438-0.542L203.372,131.547z"/>
										<g>
											<defs>
												<path id="XMLID_5_" d="M257.026,189.613l-0.498,3.752c-2.072,15.477-1.516,31.171,1.667,46.454l2.558,12.318
													c0,0-21.984,4.912-36.337,6.556c-32.795,3.757-49.226-1.367-49.226-1.367c-0.139-5.976,0.313-11.964,1.551-17.815
													c8.796-41.8-7.534-92.979-3.252-99.525c3.194-4.882,29.825-8.574,29.825-8.574s24.536-0.696,33.505,2.429l1.1,0.684
													c11.938,4.081,21.411,8.474,26.561,12.146l-1.887,4.708C262.494,153.687,257.026,189.613,257.026,189.613z"/>
											</defs>
											<use xlink:href="#XMLID_5_"  style="overflow:visible;fill:#263238;"/>
											<clipPath id="XMLID_00000168104241881072516020000011186687011143060662_">
												<use xlink:href="#XMLID_5_"  style="overflow:visible;"/>
											</clipPath>
											<g style="clip-path:url(#XMLID_00000168104241881072516020000011186687011143060662_);">
												<g>
													<path style="fill:#92E3A9;" d="M171.412,202.703c0,0,3.928,13.146-0.14,22.306l6.504,1.975
														c0,0,1.485-11.068,0.578-20.027L171.412,202.703z"/>
													<path style="opacity:0.6;fill:#FFFFFF;" d="M171.412,202.703c0,0,3.928,13.146-0.14,22.306l6.504,1.975
														c0,0,1.485-11.068,0.578-20.027L171.412,202.703z"/>
												</g>
											</g>
											<g style="opacity:0.2;clip-path:url(#XMLID_00000168104241881072516020000011186687011143060662_);">
												<path d="M200.487,206.996c1.23,2.575,2.486,5.266,2.428,8.111c-0.129,6.409-6.513,10.699-12.173,13.858
													c12.546-4.181,26.02-5.637,39.187-4.235c-3.373-0.359-9.348-6.868-11.903-9.019c-4.038-3.399-7.89-7.013-11.533-10.821
													c-6.824-7.133-13.156-14.983-18.198-23.45C192.28,189.994,196.42,198.48,200.487,206.996z"/>
											</g>
											<g style="opacity:0.2;clip-path:url(#XMLID_00000168104241881072516020000011186687011143060662_);">
												<path d="M227.815,213.31c6.079,1.212,12.711-0.702,17.166-4.953c-2.925-1.852-6.728-0.653-10.18-0.241
													c-3.916,0.467-7.966-0.234-11.512-1.928c-1.502-0.717-7.187-6.189-8.715-5.131
													C210.054,204.189,225.637,212.876,227.815,213.31z"/>
											</g>
											<g style="opacity:0.2;clip-path:url(#XMLID_00000168104241881072516020000011186687011143060662_);">
												<path d="M238.998,234.649c-2.64,0.148-7.012-2.438-9.79-2.995c-3.508-0.703-7.089-1.046-10.668-1.039
													c-6.167,0.012-15.329,1.502-23.16,4.313c2.547,4.04,16.617,1.231,20.814,0.996
													C223.795,235.499,231.396,235.074,238.998,234.649z"/>
											</g>
											
												<use xlink:href="#XMLID_5_"  style="overflow:visible;fill:none;stroke:#263238;stroke-linecap:round;stroke-linejoin:round;stroke-miterlimit:10;"/>
										</g>
										<g>
											<g>
												<path style="fill:none;stroke:#757575;stroke-linecap:round;stroke-linejoin:round;stroke-miterlimit:10;" d="
													M185.237,175.742c9.123,19.716,24.157,36.774,42.799,48.285"/>
												<path style="fill:none;stroke:#757575;stroke-linecap:round;stroke-linejoin:round;" d="M183.508,171.812
													c0.34,0.838,0.35,0.833,0.711,1.662"/>
												<path style="fill:none;stroke:#757575;stroke-linecap:round;stroke-linejoin:round;" d="M180.953,165.015
													c0.451,1.335,0.929,2.661,1.433,3.977"/>
												<path style="fill:none;stroke:#757575;stroke-linecap:round;stroke-linejoin:round;stroke-miterlimit:10;" d="
													M216.003,208.044c3.127,3.167,6.879,5.683,11.195,6.74c6.257,1.532,13.736-0.752,16.736-6.375"/>
												<path style="fill:none;stroke:#757575;stroke-linecap:round;stroke-linejoin:round;stroke-miterlimit:10;" d="
													M212.168,203.448c0.619,0.871,1.277,1.726,1.972,2.552"/>
												<path style="fill:none;stroke:#757575;stroke-linecap:round;stroke-linejoin:round;" d="M192.712,235.895
													c15.386-5.956,32.959-6.232,48.53-0.765"/>
												<path style="fill:none;stroke:#757575;stroke-linecap:round;stroke-linejoin:round;stroke-miterlimit:10;" d="
													M207.345,226.471c5.521-1.673,11.551-1.671,17.071,0.007"/>
												<path style="fill:none;stroke:#263238;stroke-linecap:round;stroke-linejoin:round;" d="M227.002,136.726
													c8.988,0.047,17.967,1.511,26.491,4.32"/>
											</g>
										</g>
										<path style="fill:none;stroke:#263238;stroke-linecap:round;stroke-linejoin:round;" d="M218.006,102.98
											c0.313,1.551,1.221,3.699,1.766,4.41c1.513,1.973,2.98,2.274,4.538,1.897"/>
									</g>
								</g>
								<g>
									<path style="fill:#263238;stroke:#263238;stroke-linecap:round;stroke-linejoin:round;stroke-miterlimit:10;" d="
										M248.154,83.471c2.69,0.379,4.712,3.285,4.101,5.894c1.508-1.022,1.919-3.366,1.067-4.961
										C252.47,82.808,249.862,82.825,248.154,83.471z"/>
									<path style="fill:#263238;stroke:#263238;stroke-linecap:round;stroke-linejoin:round;stroke-miterlimit:10;" d="
										M247.294,79.442c-1.178-2.375-2.797-4.498-4.699-6.363c-6.618-6.489-24.955,1.297-29.197,5.437
										c-4.416,4.309-3.615,20.381-1.673,20.023c5.169-0.953,15.019-1.794,15.019-1.794c3.473-0.814-0.601-8.995,2.555-10.64
										c13.174-6.867,17.438-0.629,18.217-2.222C248.294,82.29,248.842,80.336,247.294,79.442z"/>
									<path style="fill:#263238;stroke:#263238;stroke-linecap:round;stroke-linejoin:round;stroke-miterlimit:10;" d="
										M207.773,98.212c-2.261,1.566-5.585,0.821-7.844,2.389c-1.725,1.197-2.349,3.41-2.667,5.466
										c-0.718,4.643-0.481,9.427,0.692,13.979c3.722-2.334,7.791-6.264,10.34-9.813
										C210.842,106.684,210.073,101.922,207.773,98.212z"/>
									<path style="fill:#92E3A9;stroke:#263238;stroke-linecap:round;stroke-linejoin:round;" d="M210.819,96.189
										c-1.711,0.168-3.22,1.561-3.501,3.232c-0.282,1.671,0.69,3.47,2.253,4.174c1.038,0.467,2.423,0.395,3.141-0.478
										c0.476-0.579,0.567-1.367,0.639-2.108c0.17-1.753-0.1-4.116-1.862-4.407"/>
								</g>
							</g>
							<g>
								<path style="fill:#757575;stroke:#263238;stroke-linecap:round;stroke-linejoin:round;stroke-miterlimit:10;" d="
									M317.5,157.291c1.774-1.183,4.337-1.648,5.352-3.507c1.306-2.393,2.615-4.786,3.921-7.179
									c-0.749-3.323-2.326-6.585-4.855-8.905c2.575-4.641,3.673-6.796,6.248-11.438c0-1.765-0.878-2.3-2.124-1.631
									c-2.997,4.255-5.311,7.111-8.308,11.366c-1.776-0.714-3.861-0.951-5.763-0.707c-1.977,1.971-3.421,4.439-4.182,7.106
									c-0.988,3.462-0.723,7.258,0.737,10.555C312.037,152.489,315.472,154.429,317.5,157.291z"/>
								<path style="fill:#263238;stroke:#263238;stroke-linecap:round;stroke-linejoin:round;stroke-miterlimit:10;" d="
									M255.88,174.812c-0.428,3.636,0.97,7.264,3.755,9.687c5.471,4.758,24.333,17.086,28.456,17.565
									c1.607,0.187,3.223,0.064,4.805-0.272c5.658-1.2,24.906-43.845,24.906-43.845c-1.035-2.702-5.324-4.919-8.254-4.973
									c-2.93-0.055-4.481,0.848-6.227,3.167c-0.136,0.181-15.487,19.991-15.487,19.991c-2.394-0.022-12.387-12.471-13.202-14.689
									c-2.421-6.59-6.517-12.65-10.153-14.77C264.48,146.672,259.103,147.406,255.88,174.812z"/>
								<path style="fill:none;stroke:#757575;stroke-linecap:round;stroke-linejoin:round;stroke-miterlimit:10;" d="
									M289.111,177.694c0,0,5.45,3.625,7.346,6.156"/>
								<path style="fill:none;stroke:#757575;stroke-linecap:round;stroke-linejoin:round;stroke-miterlimit:10;" d="
									M289.176,179.998c1.4,1.586,2.142,3.719,2.026,5.817"/>
								<path style="fill:none;stroke:#757575;stroke-linecap:round;stroke-linejoin:round;stroke-miterlimit:10;" d="
									M274.09,160.081c1.485,3.494,2.047,7.364,1.616,11.128"/>
							</g>
						</g>
						<g>
							<g>
								<path style="fill:none;stroke:#263238;stroke-linecap:round;stroke-linejoin:round;" d="M243.626,364.755
									c-3.678,2.169-7.896,3.423-12.166,3.619c3.81-0.236,8.028,0.343,11.405,2.116"/>
								<path style="fill:none;stroke:#263238;stroke-linecap:round;stroke-linejoin:round;" d="M230.448,374.756
									c4.295,0.722,8.549,1.683,12.736,2.879"/>
							</g>
							<path style="fill:none;stroke:#263238;stroke-linecap:round;stroke-linejoin:round;" d="M250.747,284.435
								c-8.61,7.494-20.582,9.833-30.966,4.314c-10.213,4.354-25.053,3.853-33.973-2.738"/>
							<path style="fill:none;stroke:#263238;stroke-linecap:round;stroke-linejoin:round;" d="M254.84,280.156
								c-0.657,0.824-1.349,1.611-2.07,2.357"/>
							
								<line style="fill:none;stroke:#263238;stroke-linecap:round;stroke-linejoin:round;" x1="233.574" y1="264.941" x2="225.307" y2="264.941"/>
							
								<line style="fill:none;stroke:#263238;stroke-linecap:round;stroke-linejoin:round;" x1="239.871" y1="264.941" x2="236.188" y2="264.941"/>
							
								<line style="fill:none;stroke:#263238;stroke-linecap:round;stroke-linejoin:round;" x1="251.348" y1="264.941" x2="242.129" y2="264.941"/>
							
								<line style="fill:none;stroke:#263238;stroke-linecap:round;stroke-linejoin:round;" x1="194.087" y1="264.941" x2="213.154" y2="264.941"/>
							
								<line style="fill:none;stroke:#263238;stroke-linecap:round;stroke-linejoin:round;" x1="187.113" y1="264.941" x2="190.386" y2="264.941"/>
							<path style="fill:none;stroke:#263238;stroke-linecap:round;stroke-linejoin:round;" d="M172.085,440.414
								c5.861,1.814,12.754-0.399,16.444-5.279"/>
							<path style="fill:#92E3A9;stroke:#263238;stroke-linecap:round;stroke-linejoin:round;" d="M226.467,440.564
								c4.488,1.414,9.681,0.341,13.232-2.733"/>
							<g>
								<path style="fill:none;stroke:#263238;stroke-linecap:round;stroke-linejoin:round;" d="M194.087,374.907
									c-0.145,0-0.29,0-0.436,0c-3.652,4.262-11.426,4.47-15.965,1.156c3.145-0.674,6.29-1.348,9.435-2.022"/>
								<path style="fill:none;stroke:#263238;stroke-linecap:round;stroke-linejoin:round;" d="M179.598,357.9
									c3.14,5.682,7.848,10.514,13.523,13.71"/>
								<path style="fill:none;stroke:#263238;stroke-linecap:round;stroke-linejoin:round;" d="M176.387,349.857
									c0.347,1.349,0.78,2.674,1.29,3.969"/>
							</g>
						</g>
					</g>
				</g>
			</g>
			<path style="fill:none;stroke:#757575;stroke-linecap:round;stroke-linejoin:round;stroke-miterlimit:10;" d="M265.969,148.991
				L265.969,148.991c-1.004-0.041-1.771,0.637-2.291,1.497c-4.116,6.803-6.137,16.516-5.109,29.19"/>
			<path style="fill:none;stroke:#757575;stroke-linecap:round;stroke-linejoin:round;stroke-miterlimit:10;" d="M178.846,137.409
				c-5.331,6.027-5.331,19.882-2.559,35.235"/>
		</g>
		
			<line style="fill:none;stroke:#263238;stroke-linecap:round;stroke-linejoin:round;" x1="218.903" y1="267.657" x2="219.463" y2="284.138"/>
		
			<line style="fill:none;stroke:#263238;stroke-linecap:round;stroke-linejoin:round;" x1="218.69" y1="261.362" x2="218.811" y2="264.941"/>
	</g>
</g>
<g id="Floor">
	
		<line style="fill:#BFBFBF;stroke:#263238;stroke-linecap:round;stroke-linejoin:round;stroke-miterlimit:10;" x1="459.703" y1="466.462" x2="39.485" y2="466.462"/>
</g>
</svg>
